<svg xmlns="http://www.w3.org/2000/svg" xmlns:v="https://svgstorm.com"
viewBox = "0 0 698 584"
width="698"
height="584">
<g fill="None" fill-opacity="0.0" stroke="#FEFEFE" stroke-opacity="1.00" stroke-width="0.3"><path d="
M 0.00 584.00 
L 698.00 584.00
L 698.00 0.00
L 0.00 0.00
L 0.00 584.00
M 472.00 88.00 
C 472.85 91.27 472.92 93.77 472.00 97.00
C 471.22 99.76 469.61 102.16 469.00 105.00
C 484.91 108.29 507.18 107.45 523.00 109.00 C 538.82 110.55 560.77 109.09 562.00 128.00 C 563.23 146.91 565.93 163.00 566.00 182.00
C 569.27 182.70 571.77 180.57 575.00 181.00
C 579.88 180.13 585.26 180.54 590.00 181.00
C 604.07 181.00 616.32 186.91 619.92 201.08 C 623.53 215.24 637.15 218.23 640.00 232.00
C 640.68 235.27 640.80 237.76 640.00 241.00
C 633.55 267.04 592.85 255.37 573.98 255.02 C 555.10 254.68 563.36 272.20 561.00 285.00 C 558.65 297.81 559.29 309.88 555.22 321.22 C 551.15 332.56 548.52 342.70 544.08 353.08 C 539.63 363.45 535.62 371.91 530.23 381.23 C 524.84 390.55 519.63 397.66 512.75 405.75 C 505.87 413.84 499.00 420.18 491.30 427.30 C 483.60 434.43 477.24 440.79 468.77 446.77 C 460.30 452.75 452.64 459.31 443.30 464.31 C 433.97 469.30 425.18 474.23 414.98 477.98 C 404.77 481.72 392.90 485.92 382.00 488.00
C 382.60 490.31 385.13 490.03 387.00 490.00
C 391.78 490.56 397.19 490.18 402.00 490.00
C 417.99 489.39 429.89 482.95 444.23 476.23 C 458.57 469.51 469.36 461.21 487.07 464.93 C 504.79 468.64 492.23 488.03 481.25 496.25 C 470.26 504.47 459.97 511.62 448.30 519.30 C 436.64 526.99 426.12 533.62 413.31 540.31 C 400.49 546.99 386.71 553.26 372.00 556.00 C 357.29 558.74 337.70 563.46 322.00 562.00 C 306.30 560.54 293.07 556.36 280.25 547.75 C 267.44 539.13 260.00 526.22 260.00 511.00
C 259.63 507.18 259.54 502.79 260.00 499.00
C 260.16 490.87 262.53 479.73 265.92 472.92 C 269.32 466.12 251.13 461.17 247.25 466.25 C 243.37 471.33 238.02 478.85 233.23 484.23 C 228.44 489.61 224.15 496.65 219.70 502.70 C 215.24 508.74 209.86 514.91 203.75 519.75 C 197.65 524.59 191.77 528.59 185.25 533.25 C 178.73 537.90 171.78 541.31 163.98 543.98 C 156.17 546.64 148.71 550.07 140.32 552.32 C 131.94 554.57 121.04 556.16 112.00 554.00 C 102.96 551.85 97.35 545.19 97.00 536.00
C 96.57 533.01 96.72 529.87 97.00 527.00
C 97.00 509.05 103.40 489.40 109.32 473.32 C 115.25 457.24 125.27 447.62 138.75 436.75 C 152.24 425.88 165.82 424.39 179.25 411.25 C 192.68 398.11 183.92 376.80 166.32 373.68 C 148.73 370.56 136.94 360.56 123.25 350.75 C 109.55 340.94 99.90 324.51 99.00 308.00
C 97.73 300.15 98.25 290.75 99.00 283.00
C 99.00 261.90 103.55 232.50 109.98 213.98 C 116.40 195.45 124.37 174.79 138.25 162.25 C 152.13 149.70 165.56 126.79 185.00 129.00
C 194.95 130.13 196.67 137.94 195.00 146.00
C 190.28 168.78 177.63 186.91 173.07 210.07 C 168.52 233.23 161.34 262.71 170.00 286.00
C 176.67 278.87 178.13 265.82 181.93 255.93 C 185.73 246.03 189.11 235.33 193.77 225.77 C 198.43 216.21 201.84 206.77 208.00 198.00
C 210.83 193.23 214.28 190.02 218.00 186.00
C 220.65 182.64 223.22 179.25 226.00 176.00
C 229.37 172.06 233.11 168.33 237.00 165.00
C 243.76 159.22 249.64 154.07 256.75 148.75 C 263.86 143.43 271.13 139.46 279.08 135.08 C 287.02 130.69 295.45 126.59 304.08 123.08 C 312.70 119.57 320.97 116.14 330.22 113.22 C 339.47 110.30 349.17 107.19 359.02 105.02 C 368.87 102.86 379.59 101.47 390.01 100.01 C 400.43 98.55 391.34 82.85 391.00 74.00
C 390.55 70.87 390.44 68.11 391.00 65.00
C 392.64 40.90 418.91 37.88 433.08 52.92 C 447.25 67.95 466.33 66.14 472.00 88.00 Z"/>
</g>
<g fill="None" fill-opacity="0.0" stroke="#000000" stroke-opacity="1.00" stroke-width="0.3"><path d="
M 391.00 65.00 
C 390.80 67.94 390.89 71.06 391.00 74.00
C 391.34 82.85 400.43 98.55 390.01 100.01 C 379.59 101.47 368.87 102.86 359.02 105.02 C 349.17 107.19 339.47 110.30 330.22 113.22 C 320.97 116.14 312.70 119.57 304.08 123.08 C 295.45 126.59 287.02 130.69 279.08 135.08 C 271.13 139.46 263.86 143.43 256.75 148.75 C 249.64 154.07 243.76 159.22 237.00 165.00
C 233.41 168.59 229.54 172.46 226.00 176.00
C 223.22 179.25 220.65 182.64 218.00 186.00
C 214.75 190.12 210.96 194.02 208.00 198.00
C 201.84 206.77 198.43 216.21 193.77 225.77 C 189.11 235.33 185.73 246.03 181.93 255.93 C 178.13 265.82 176.67 278.87 170.00 286.00
C 161.34 262.71 168.52 233.23 173.07 210.07 C 177.63 186.91 190.28 168.78 195.00 146.00
C 195.74 137.88 193.33 130.69 185.00 129.00
C 165.56 126.79 152.13 149.70 138.25 162.25 C 124.37 174.79 116.40 195.45 109.98 213.98 C 103.55 232.50 99.00 261.90 99.00 283.00
C 99.00 291.29 98.55 299.72 99.00 308.00
C 99.90 324.51 109.55 340.94 123.25 350.75 C 136.94 360.56 148.73 370.56 166.32 373.68 C 183.92 376.80 192.68 398.11 179.25 411.25 C 165.82 424.39 152.24 425.88 138.75 436.75 C 125.27 447.62 115.25 457.24 109.32 473.32 C 103.40 489.40 97.00 509.05 97.00 527.00
C 97.00 529.99 96.89 533.01 97.00 536.00
C 97.35 545.19 102.96 551.85 112.00 554.00 C 121.04 556.16 131.94 554.57 140.32 552.32 C 148.71 550.07 156.17 546.64 163.98 543.98 C 171.78 541.31 178.73 537.90 185.25 533.25 C 191.77 528.59 197.65 524.59 203.75 519.75 C 209.86 514.91 215.24 508.74 219.70 502.70 C 224.15 496.65 228.44 489.61 233.23 484.23 C 238.02 478.85 243.37 471.33 247.25 466.25 C 251.13 461.17 269.32 466.12 265.92 472.92 C 262.53 479.73 260.16 490.87 260.00 499.00
C 259.92 503.00 260.00 507.00 260.00 511.00
C 260.00 526.22 267.44 539.13 280.25 547.75 C 293.07 556.36 306.30 560.54 322.00 562.00 C 337.70 563.46 357.29 558.74 372.00 556.00 C 386.71 553.26 400.49 546.99 413.31 540.31 C 426.12 533.62 436.64 526.99 448.30 519.30 C 459.97 511.62 470.26 504.47 481.25 496.25 C 492.23 488.03 504.79 468.64 487.07 464.93 C 469.36 461.21 458.57 469.51 444.23 476.23 C 429.89 482.95 417.99 489.39 402.00 490.00
C 397.16 490.69 391.83 491.18 387.00 490.00
C 385.13 490.03 382.60 490.31 382.00 488.00
C 392.90 485.92 404.77 481.72 414.98 477.98 C 425.18 474.23 433.97 469.30 443.30 464.31 C 452.64 459.31 460.30 452.75 468.77 446.77 C 477.24 440.79 483.60 434.43 491.30 427.30 C 499.00 420.18 505.87 413.84 512.75 405.75 C 519.63 397.66 524.84 390.55 530.23 381.23 C 535.62 371.91 539.63 363.45 544.08 353.08 C 548.52 342.70 551.15 332.56 555.22 321.22 C 559.29 309.88 558.65 297.81 561.00 285.00 C 563.36 272.20 555.10 254.68 573.98 255.02 C 592.85 255.37 633.55 267.04 640.00 241.00
C 640.34 238.23 640.25 234.78 640.00 232.00
C 637.15 218.23 623.53 215.24 619.92 201.08 C 616.32 186.91 604.07 181.00 590.00 181.00
C 585.04 181.00 579.95 180.66 575.00 181.00
C 571.77 180.57 569.27 182.70 566.00 182.00
C 565.93 163.00 563.23 146.91 562.00 128.00 C 560.77 109.09 538.82 110.55 523.00 109.00 C 507.18 107.45 484.91 108.29 469.00 105.00
C 469.61 102.16 471.22 99.76 472.00 97.00
C 472.40 94.38 472.35 90.63 472.00 88.00
C 466.33 66.14 447.25 67.95 433.08 52.92 C 418.91 37.88 392.64 40.90 391.00 65.00
M 426.00 135.00 
C 434.01 135.00 446.29 135.42 451.75 141.25 C 457.22 147.07 460.48 156.93 461.77 163.23 C 463.06 169.53 470.88 185.48 462.99 185.99 C 455.10 186.50 444.13 181.20 436.00 181.00 C 427.86 180.80 416.71 180.24 412.23 172.77 C 407.75 165.30 405.29 160.58 400.25 152.75 C 395.21 144.93 391.87 135.50 405.00 135.00
C 411.66 134.05 419.45 134.37 426.00 135.00
M 400.00 219.00 
C 397.21 224.22 390.92 221.38 387.00 221.00
C 372.86 221.00 352.75 220.15 343.25 208.75 C 333.75 197.35 326.93 189.31 318.00 178.00
C 315.36 175.14 310.60 172.70 309.00 169.00
C 305.30 160.43 320.15 156.31 326.68 153.68 C 333.21 151.05 345.10 144.95 352.22 143.22 C 359.35 141.50 373.69 134.42 379.25 140.75 C 384.81 147.08 388.38 155.91 393.25 162.75 C 398.13 169.58 405.88 177.68 404.00 187.00 C 402.12 196.32 404.56 210.46 400.00 219.00
M 486.00 146.00 
C 494.30 146.66 502.80 150.38 509.25 155.75 C 515.69 161.13 519.80 169.68 521.77 177.23 C 523.74 184.78 526.23 204.28 515.98 201.02 C 505.72 197.77 499.28 195.44 488.98 194.02 C 478.67 192.61 481.31 177.11 479.00 170.00 C 476.69 162.88 467.97 149.68 477.00 146.00
C 480.26 144.67 482.90 145.40 486.00 146.00
M 340.00 227.00 
C 342.20 237.60 342.44 254.49 340.00 265.00
C 338.23 272.60 332.63 273.74 325.00 274.00
C 323.34 274.06 321.66 274.00 320.00 274.00
C 313.32 274.71 302.50 276.77 296.00 274.00
C 295.50 274.00 294.46 274.13 294.00 274.00
C 284.57 271.41 274.66 260.10 267.75 253.25 C 260.84 246.40 247.03 239.22 243.00 230.00
C 240.49 224.25 245.40 220.14 249.00 216.00
C 253.85 207.91 263.49 197.79 270.75 191.75 C 278.01 185.71 288.20 170.47 296.75 178.25 C 305.31 186.02 311.85 193.53 319.25 201.75 C 326.65 209.97 337.80 216.36 340.00 227.00
M 476.00 259.00 
C 474.47 263.53 471.32 261.60 468.00 261.00
C 454.03 258.50 446.22 250.34 435.00 242.00
C 430.82 238.89 422.11 232.02 421.00 227.00
C 419.39 219.71 420.05 201.15 427.25 196.25 C 434.45 191.35 449.29 199.83 458.07 200.93 C 466.86 202.02 474.30 213.24 474.32 222.68 C 474.34 232.12 479.38 248.99 476.00 259.00
M 490.00 251.00 
C 490.23 245.02 490.00 238.98 490.00 233.00
C 490.00 227.62 485.56 211.17 493.01 211.01 C 500.46 210.85 506.93 216.65 515.07 216.93 C 523.22 217.20 526.08 226.33 525.93 234.07 C 525.77 241.82 526.63 253.24 526.00 261.00 C 525.37 268.76 526.49 280.73 516.78 278.22 C 507.07 275.71 505.72 273.63 496.32 270.68 C 486.92 267.72 489.70 258.95 490.00 251.00
M 372.00 234.00 
C 384.61 236.79 394.14 239.39 405.25 246.75 C 416.35 254.11 419.31 258.59 432.08 265.92 C 444.85 273.25 441.92 282.50 436.22 295.22 C 430.52 307.95 426.46 315.54 411.78 316.78 C 397.10 318.02 388.86 315.61 380.75 304.25 C 372.64 292.89 362.08 292.89 358.00 280.00
C 356.87 276.43 357.59 273.36 358.00 270.00
C 358.18 260.81 357.79 243.68 363.00 236.00
C 365.72 232.00 368.34 233.19 372.00 234.00
M 240.00 248.00 
C 243.84 250.21 246.70 253.42 250.00 256.00
C 258.18 261.07 261.65 265.24 269.75 271.25 C 277.86 277.25 284.30 281.01 281.07 292.07 C 277.85 303.14 276.58 310.41 277.00 323.00 C 277.42 335.59 271.75 341.46 259.00 341.00 C 246.25 340.54 239.39 344.63 227.00 344.00 C 214.61 343.37 216.39 330.69 214.02 320.98 C 211.66 311.26 213.28 298.46 214.98 288.98 C 216.68 279.49 218.98 269.78 223.31 261.31 C 227.63 252.83 229.07 241.71 240.00 248.00
M 470.00 277.00 
C 479.12 277.79 490.87 285.36 500.02 286.98 C 509.18 288.60 523.81 294.45 519.67 304.67 C 515.53 314.90 514.22 324.93 509.08 334.08 C 503.94 343.22 501.03 352.16 493.25 359.25 C 485.46 366.34 478.85 351.32 471.25 346.75 C 463.65 342.18 459.86 332.16 451.25 326.75 C 442.63 321.34 445.56 306.87 452.31 300.31 C 459.05 293.74 458.01 275.96 470.00 277.00
M 377.00 374.00 
C 380.31 377.19 367.33 379.30 363.00 378.00 C 358.67 376.70 348.22 379.16 343.00 378.00 C 337.78 376.84 327.34 380.21 323.00 377.00
C 322.50 377.00 322.00 377.00 322.00 377.00
C 312.64 373.62 311.44 365.83 303.70 359.30 C 295.96 352.77 290.92 345.84 292.33 334.33 C 293.74 322.82 296.07 315.83 296.93 302.93 C 297.78 290.02 309.18 289.03 320.67 290.33 C 332.16 291.63 339.81 291.94 346.75 300.25 C 353.70 308.55 359.72 310.52 366.25 317.75 C 372.77 324.98 381.69 329.30 380.00 340.00 C 378.31 350.70 380.63 363.77 377.00 374.00
M 482.00 377.00 
C 483.46 382.76 479.13 385.87 475.00 390.00
C 467.57 398.69 459.99 405.15 451.25 412.25 C 442.51 419.34 430.86 426.66 422.75 416.25 C 414.64 405.84 408.00 401.74 400.00 392.00
C 395.61 386.66 397.41 381.10 398.00 375.00
C 398.00 364.58 398.48 353.46 399.00 343.00 C 399.52 332.54 417.48 338.89 425.00 336.00 C 432.52 333.11 443.13 337.54 448.75 343.25 C 454.37 348.96 461.43 352.22 466.75 358.25 C 472.08 364.28 480.06 369.35 482.00 377.00
M 301.00 382.00 
C 303.63 384.24 308.61 387.39 309.00 391.00
C 309.40 395.46 308.53 400.29 308.00 404.00
C 307.57 415.39 305.97 427.06 303.02 438.02 C 300.08 448.99 285.01 438.38 278.30 433.70 C 271.60 429.02 263.15 422.19 256.75 415.25 C 250.36 408.31 244.80 402.07 239.70 393.30 C 234.59 384.54 228.67 379.42 226.02 367.98 C 223.38 356.54 241.24 356.62 251.07 355.07 C 260.91 353.52 275.18 352.37 281.75 361.25 C 288.32 370.13 292.93 375.10 301.00 382.00
M 374.00 393.00 
C 385.69 395.90 397.30 412.99 405.00 422.00
C 407.81 424.81 411.78 427.01 413.00 431.00
C 415.77 440.06 398.20 444.99 390.77 448.77 C 383.35 452.56 366.22 456.82 357.00 457.00
C 355.67 457.03 354.33 457.00 353.00 457.00
C 348.48 457.62 343.43 457.47 339.00 457.00
C 337.35 457.00 335.64 457.14 334.00 457.00
C 325.16 456.24 314.12 453.48 316.00 443.00 C 317.88 432.52 318.79 425.23 320.98 415.98 C 323.16 406.72 323.24 397.81 333.67 396.67 C 344.10 395.54 352.57 393.57 363.00 393.00
C 366.76 392.39 370.23 392.07 374.00 393.00 Z"/>
</g>
<g fill="None" fill-opacity="0.0" stroke="#8B8B8B" stroke-opacity="1.00" stroke-width="0.3"><path d="
M 391.00 74.00 
C 390.89 71.06 390.80 67.94 391.00 65.00
C 390.44 68.11 390.55 70.87 391.00 74.00 Z"/>
</g>
<g fill="None" fill-opacity="0.0" stroke="#717171" stroke-opacity="1.00" stroke-width="0.3"><path d="
M 472.00 97.00 
C 472.92 93.77 472.85 91.27 472.00 88.00
C 472.35 90.63 472.40 94.38 472.00 97.00 Z"/>
</g>
<g fill="None" fill-opacity="0.0" stroke="#676767" stroke-opacity="1.00" stroke-width="0.3"><path d="
M 195.00 146.00 
C 196.67 137.94 194.95 130.13 185.00 129.00
C 193.33 130.69 195.74 137.88 195.00 146.00 Z"/>
</g>
<g fill="None" fill-opacity="0.0" stroke="#747474" stroke-opacity="1.00" stroke-width="0.3"><path d="
M 405.00 135.00 
C 411.98 134.73 419.02 135.00 426.00 135.00
C 419.45 134.37 411.66 134.05 405.00 135.00 Z"/>
</g>
<g fill="None" fill-opacity="0.0" stroke="#F8F8F8" stroke-opacity="1.00" stroke-width="0.3"><path d="
M 426.00 135.00 
C 419.02 135.00 411.98 134.73 405.00 135.00
C 391.87 135.50 395.21 144.93 400.25 152.75 C 405.29 160.58 407.75 165.30 412.23 172.77 C 416.71 180.24 427.86 180.80 436.00 181.00 C 444.13 181.20 455.10 186.50 462.99 185.99 C 470.88 185.48 463.06 169.53 461.77 163.23 C 460.48 156.93 457.22 147.07 451.75 141.25 C 446.29 135.42 434.01 135.00 426.00 135.00 Z"/>
</g>
<g fill="None" fill-opacity="0.0" stroke="#FAFAFA" stroke-opacity="1.00" stroke-width="0.3"><path d="
M 309.00 169.00 
C 310.55 171.97 315.80 175.22 318.00 178.00
C 326.93 189.31 333.75 197.35 343.25 208.75 C 352.75 220.15 372.86 221.00 387.00 221.00
C 390.67 221.00 397.54 222.38 400.00 219.00
C 404.56 210.46 402.12 196.32 404.00 187.00 C 405.88 177.68 398.13 169.58 393.25 162.75 C 388.38 155.91 384.81 147.08 379.25 140.75 C 373.69 134.42 359.35 141.50 352.22 143.22 C 345.10 144.95 333.21 151.05 326.68 153.68 C 320.15 156.31 305.30 160.43 309.00 169.00 Z"/>
</g>
<g fill="None" fill-opacity="0.0" stroke="#777777" stroke-opacity="1.00" stroke-width="0.3"><path d="
M 477.00 146.00 
C 479.46 145.38 483.45 145.80 486.00 146.00
C 482.90 145.40 480.26 144.67 477.00 146.00 Z"/>
</g>
<g fill="None" fill-opacity="0.0" stroke="#F7F7F7" stroke-opacity="1.00" stroke-width="0.3"><path d="
M 486.00 146.00 
C 483.45 145.80 479.46 145.38 477.00 146.00
C 467.97 149.68 476.69 162.88 479.00 170.00 C 481.31 177.11 478.67 192.61 488.98 194.02 C 499.28 195.44 505.72 197.77 515.98 201.02 C 526.23 204.28 523.74 184.78 521.77 177.23 C 519.80 169.68 515.69 161.13 509.25 155.75 C 502.80 150.38 494.30 146.66 486.00 146.00 Z"/>
</g>
<g fill="None" fill-opacity="0.0" stroke="#888888" stroke-opacity="1.00" stroke-width="0.3"><path d="
M 226.00 176.00 
C 229.54 172.46 233.41 168.59 237.00 165.00
C 233.11 168.33 229.37 172.06 226.00 176.00 Z"/>
</g>
<g fill="None" fill-opacity="0.0" stroke="#767676" stroke-opacity="1.00" stroke-width="0.3"><path d="
M 318.00 178.00 
C 315.80 175.22 310.55 171.97 309.00 169.00
C 310.60 172.70 315.36 175.14 318.00 178.00 Z"/>
</g>
<g fill="None" fill-opacity="0.0" stroke="#FBFBFB" stroke-opacity="1.00" stroke-width="0.3"><path d="
M 249.00 216.00 
C 246.73 219.78 241.78 225.09 243.00 230.00
C 247.03 239.22 260.84 246.40 267.75 253.25 C 274.66 260.10 284.57 271.41 294.00 274.00
C 294.94 270.74 305.57 274.16 309.00 273.00 C 312.43 271.84 321.92 273.87 325.00 274.00
C 332.63 273.74 338.23 272.60 340.00 265.00
C 341.32 253.20 341.08 238.83 340.00 227.00
C 337.80 216.36 326.65 209.97 319.25 201.75 C 311.85 193.53 305.31 186.02 296.75 178.25 C 288.20 170.47 278.01 185.71 270.75 191.75 C 263.49 197.79 253.85 207.91 249.00 216.00 Z"/>
</g>
<g fill="None" fill-opacity="0.0" stroke="#6A6A6A" stroke-opacity="1.00" stroke-width="0.3"><path d="
M 575.00 181.00 
C 579.95 180.66 585.04 181.00 590.00 181.00
C 585.26 180.54 579.88 180.13 575.00 181.00 Z"/>
</g>
<g fill="None" fill-opacity="0.0" stroke="#888888" stroke-opacity="1.00" stroke-width="0.3"><path d="
M 208.00 198.00 
C 210.96 194.02 214.75 190.12 218.00 186.00
C 214.28 190.02 210.83 193.23 208.00 198.00 Z"/>
</g>
<g fill="None" fill-opacity="0.0" stroke="#F9F9F9" stroke-opacity="1.00" stroke-width="0.3"><path d="
M 421.00 227.00 
C 422.27 231.01 431.63 239.07 435.00 242.00
C 446.22 250.34 454.03 258.50 468.00 261.00
C 470.82 261.14 474.64 261.71 476.00 259.00
C 479.38 248.99 474.34 232.12 474.32 222.68 C 474.30 213.24 466.86 202.02 458.07 200.93 C 449.29 199.83 434.45 191.35 427.25 196.25 C 420.05 201.15 419.39 219.71 421.00 227.00 Z"/>
</g>
<g fill="None" fill-opacity="0.0" stroke="#F7F7F7" stroke-opacity="1.00" stroke-width="0.3"><path d="
M 490.00 233.00 
C 490.55 238.71 490.81 245.32 490.00 251.00
C 489.70 258.95 486.92 267.72 496.32 270.68 C 505.72 273.63 507.07 275.71 516.78 278.22 C 526.49 280.73 525.37 268.76 526.00 261.00 C 526.63 253.24 525.77 241.82 525.93 234.07 C 526.08 226.33 523.22 217.20 515.07 216.93 C 506.93 216.65 500.46 210.85 493.01 211.01 C 485.56 211.17 490.00 227.62 490.00 233.00 Z"/>
</g>
<g fill="None" fill-opacity="0.0" stroke="#737373" stroke-opacity="1.00" stroke-width="0.3"><path d="
M 243.00 230.00 
C 241.78 225.09 246.73 219.78 249.00 216.00
C 245.40 220.14 240.49 224.25 243.00 230.00 Z"/>
</g>
<g fill="None" fill-opacity="0.0" stroke="#717171" stroke-opacity="1.00" stroke-width="0.3"><path d="
M 387.00 221.00 
C 390.92 221.38 397.21 224.22 400.00 219.00
C 397.54 222.38 390.67 221.00 387.00 221.00 Z"/>
</g>
<g fill="None" fill-opacity="0.0" stroke="#7F7F7F" stroke-opacity="1.00" stroke-width="0.3"><path d="
M 340.00 265.00 
C 342.44 254.49 342.20 237.60 340.00 227.00
C 341.08 238.83 341.32 253.20 340.00 265.00 Z"/>
</g>
<g fill="None" fill-opacity="0.0" stroke="#7A7A7A" stroke-opacity="1.00" stroke-width="0.3"><path d="
M 435.00 242.00 
C 431.63 239.07 422.27 231.01 421.00 227.00
C 422.11 232.02 430.82 238.89 435.00 242.00 Z"/>
</g>
<g fill="None" fill-opacity="0.0" stroke="#676767" stroke-opacity="1.00" stroke-width="0.3"><path d="
M 640.00 241.00 
C 640.80 237.76 640.68 235.27 640.00 232.00
C 640.25 234.78 640.34 238.23 640.00 241.00 Z"/>
</g>
<g fill="None" fill-opacity="0.0" stroke="#747474" stroke-opacity="1.00" stroke-width="0.3"><path d="
M 363.00 236.00 
C 365.23 233.56 368.89 233.74 372.00 234.00
C 368.34 233.19 365.72 232.00 363.00 236.00 Z"/>
</g>
<g fill="None" fill-opacity="0.0" stroke="#626262" stroke-opacity="1.00" stroke-width="0.3"><path d="
M 490.00 251.00 
C 490.81 245.32 490.55 238.71 490.00 233.00
C 490.00 238.98 490.23 245.02 490.00 251.00 Z"/>
</g>
<g fill="None" fill-opacity="0.0" stroke="#FAFAFA" stroke-opacity="1.00" stroke-width="0.3"><path d="
M 363.00 236.00 
C 357.79 243.68 358.18 260.81 358.00 270.00
C 357.94 273.13 357.45 276.93 358.00 280.00
C 362.08 292.89 372.64 292.89 380.75 304.25 C 388.86 315.61 397.10 318.02 411.78 316.78 C 426.46 315.54 430.52 307.95 436.22 295.22 C 441.92 282.50 444.85 273.25 432.08 265.92 C 419.31 258.59 416.35 254.11 405.25 246.75 C 394.14 239.39 384.61 236.79 372.00 234.00
C 368.89 233.74 365.23 233.56 363.00 236.00 Z"/>
</g>
<g fill="None" fill-opacity="0.0" stroke="#FAFAFA" stroke-opacity="1.00" stroke-width="0.3"><path d="
M 250.00 256.00 
C 246.28 253.70 243.34 250.43 240.00 248.00
C 229.07 241.71 227.63 252.83 223.31 261.31 C 218.98 269.78 216.68 279.49 214.98 288.98 C 213.28 298.46 211.66 311.26 214.02 320.98 C 216.39 330.69 214.61 343.37 227.00 344.00 C 239.39 344.63 246.25 340.54 259.00 341.00 C 271.75 341.46 277.42 335.59 277.00 323.00 C 276.58 310.41 277.85 303.14 281.07 292.07 C 284.30 281.01 277.86 277.25 269.75 271.25 C 261.65 265.24 258.18 261.07 250.00 256.00 Z"/>
</g>
<g fill="None" fill-opacity="0.0" stroke="#7D7D7D" stroke-opacity="1.00" stroke-width="0.3"><path d="
M 250.00 256.00 
C 246.70 253.42 243.84 250.21 240.00 248.00
C 243.34 250.43 246.28 253.70 250.00 256.00 Z"/>
</g>
<g fill="None" fill-opacity="0.0" stroke="#7E7E7E" stroke-opacity="1.00" stroke-width="0.3"><path d="
M 468.00 261.00 
C 471.32 261.60 474.47 263.53 476.00 259.00
C 474.64 261.71 470.82 261.14 468.00 261.00 Z"/>
</g>
<g fill="None" fill-opacity="0.0" stroke="#777777" stroke-opacity="1.00" stroke-width="0.3"><path d="
M 358.00 280.00 
C 357.45 276.93 357.94 273.13 358.00 270.00
C 357.59 273.36 356.87 276.43 358.00 280.00 Z"/>
</g>
<g fill="None" fill-opacity="0.0" stroke="#C6C6C6" stroke-opacity="1.00" stroke-width="0.3"><path d="
M 294.00 274.00 
C 294.46 274.13 295.50 274.00 296.00 274.00
C 304.00 274.00 312.00 274.00 320.00 274.00
C 321.66 274.00 323.34 274.06 325.00 274.00
C 321.92 273.87 312.43 271.84 309.00 273.00 C 305.57 274.16 294.94 270.74 294.00 274.00 Z"/>
</g>
<g fill="None" fill-opacity="0.0" stroke="#585858" stroke-opacity="1.00" stroke-width="0.3"><path d="
M 320.00 274.00 
C 312.00 274.00 304.00 274.00 296.00 274.00
C 302.50 276.77 313.32 274.71 320.00 274.00 Z"/>
</g>
<g fill="None" fill-opacity="0.0" stroke="#F9F9F9" stroke-opacity="1.00" stroke-width="0.3"><path d="
M 470.00 277.00 
C 458.01 275.96 459.05 293.74 452.31 300.31 C 445.56 306.87 442.63 321.34 451.25 326.75 C 459.86 332.16 463.65 342.18 471.25 346.75 C 478.85 351.32 485.46 366.34 493.25 359.25 C 501.03 352.16 503.94 343.22 509.08 334.08 C 514.22 324.93 515.53 314.90 519.67 304.67 C 523.81 294.45 509.18 288.60 500.02 286.98 C 490.87 285.36 479.12 277.79 470.00 277.00 Z"/>
</g>
<g fill="None" fill-opacity="0.0" stroke="#797979" stroke-opacity="1.00" stroke-width="0.3"><path d="
M 99.00 308.00 
C 98.55 299.72 99.00 291.29 99.00 283.00
C 98.25 290.75 97.73 300.15 99.00 308.00 Z"/>
</g>
<g fill="None" fill-opacity="0.0" stroke="#FBFBFB" stroke-opacity="1.00" stroke-width="0.3"><path d="
M 322.00 377.00 
C 327.19 371.59 341.99 378.83 349.00 376.00 C 356.01 373.17 370.75 380.03 377.00 375.00
C 377.14 374.54 377.00 374.00 377.00 374.00
C 380.63 363.77 378.31 350.70 380.00 340.00 C 381.69 329.30 372.77 324.98 366.25 317.75 C 359.72 310.52 353.70 308.55 346.75 300.25 C 339.81 291.94 332.16 291.63 320.67 290.33 C 309.18 289.03 297.78 290.02 296.93 302.93 C 296.07 315.83 293.74 322.82 292.33 334.33 C 290.92 345.84 295.96 352.77 303.70 359.30 C 311.44 365.83 312.64 373.62 322.00 377.00 Z"/>
</g>
<g fill="None" fill-opacity="0.0" stroke="#FAFAFA" stroke-opacity="1.00" stroke-width="0.3"><path d="
M 398.00 375.00 
C 398.00 380.77 396.97 387.05 400.00 392.00
C 408.00 401.74 414.64 405.84 422.75 416.25 C 430.86 426.66 442.51 419.34 451.25 412.25 C 459.99 405.15 467.57 398.69 475.00 390.00
C 478.15 386.31 482.41 382.18 482.00 377.00
C 480.06 369.35 472.08 364.28 466.75 358.25 C 461.43 352.22 454.37 348.96 448.75 343.25 C 443.13 337.54 432.52 333.11 425.00 336.00 C 417.48 338.89 399.52 332.54 399.00 343.00 C 398.48 353.46 398.00 364.58 398.00 375.00 Z"/>
</g>
<g fill="None" fill-opacity="0.0" stroke="#FAFAFA" stroke-opacity="1.00" stroke-width="0.3"><path d="
M 308.00 404.00 
C 308.16 399.70 307.61 395.29 308.00 391.00
C 306.95 387.81 303.43 384.43 301.00 382.00
C 292.93 375.10 288.32 370.13 281.75 361.25 C 275.18 352.37 260.91 353.52 251.07 355.07 C 241.24 356.62 223.38 356.54 226.02 367.98 C 228.67 379.42 234.59 384.54 239.70 393.30 C 244.80 402.07 250.36 408.31 256.75 415.25 C 263.15 422.19 271.60 429.02 278.30 433.70 C 285.01 438.38 300.08 448.99 303.02 438.02 C 305.97 427.06 307.57 415.39 308.00 404.00 Z"/>
</g>
<g fill="None" fill-opacity="0.0" stroke="#5E5E5E" stroke-opacity="1.00" stroke-width="0.3"><path d="
M 377.00 375.00 
C 375.64 379.55 365.67 376.33 361.00 377.00 C 356.33 377.67 347.47 376.75 342.00 377.00 C 336.53 377.25 328.68 377.00 323.00 377.00
C 327.34 380.21 337.78 376.84 343.00 378.00 C 348.22 379.16 358.67 376.70 363.00 378.00 C 367.33 379.30 380.31 377.19 377.00 374.00
C 377.00 374.00 377.14 374.54 377.00 375.00 Z"/>
</g>
<g fill="None" fill-opacity="0.0" stroke="#D2D2D2" stroke-opacity="1.00" stroke-width="0.3"><path d="
M 322.00 377.00 
C 322.00 377.00 322.50 377.00 323.00 377.00
C 328.68 377.00 336.53 377.25 342.00 377.00 C 347.47 376.75 356.33 377.67 361.00 377.00 C 365.67 376.33 375.64 379.55 377.00 375.00
C 370.75 380.03 356.01 373.17 349.00 376.00 C 341.99 378.83 327.19 371.59 322.00 377.00 Z"/>
</g>
<g fill="None" fill-opacity="0.0" stroke="#767676" stroke-opacity="1.00" stroke-width="0.3"><path d="
M 400.00 392.00 
C 396.97 387.05 398.00 380.77 398.00 375.00
C 397.41 381.10 395.61 386.66 400.00 392.00 Z"/>
</g>
<g fill="None" fill-opacity="0.0" stroke="#6B6B6B" stroke-opacity="1.00" stroke-width="0.3"><path d="
M 475.00 390.00 
C 479.13 385.87 483.46 382.76 482.00 377.00
C 482.41 382.18 478.15 386.31 475.00 390.00 Z"/>
</g>
<g fill="None" fill-opacity="0.0" stroke="#727272" stroke-opacity="1.00" stroke-width="0.3"><path d="
M 308.00 391.00 
C 308.05 391.15 309.00 391.00 309.00 391.00
C 308.61 387.39 303.63 384.24 301.00 382.00
C 303.43 384.43 306.95 387.81 308.00 391.00 Z"/>
</g>
<g fill="None" fill-opacity="0.0" stroke="#BEBEBE" stroke-opacity="1.00" stroke-width="0.3"><path d="
M 308.00 404.00 
C 308.53 400.29 309.40 395.46 309.00 391.00
C 309.00 391.00 308.05 391.15 308.00 391.00
C 307.61 395.29 308.16 399.70 308.00 404.00 Z"/>
</g>
<g fill="None" fill-opacity="0.0" stroke="#787878" stroke-opacity="1.00" stroke-width="0.3"><path d="
M 363.00 393.00 
C 366.48 392.81 370.54 392.57 374.00 393.00
C 370.23 392.07 366.76 392.39 363.00 393.00 Z"/>
</g>
<g fill="None" fill-opacity="0.0" stroke="#FAFAFA" stroke-opacity="1.00" stroke-width="0.3"><path d="
M 334.00 457.00 
C 340.83 456.94 350.19 456.71 357.00 457.00
C 366.22 456.82 383.35 452.56 390.77 448.77 C 398.20 444.99 415.77 440.06 413.00 431.00
C 411.82 428.20 407.13 424.49 405.00 422.00
C 397.30 412.99 385.69 395.90 374.00 393.00
C 370.54 392.57 366.48 392.81 363.00 393.00
C 352.57 393.57 344.10 395.54 333.67 396.67 C 323.24 397.81 323.16 406.72 320.98 415.98 C 318.79 425.23 317.88 432.52 316.00 443.00 C 314.12 453.48 325.16 456.24 334.00 457.00 Z"/>
</g>
<g fill="None" fill-opacity="0.0" stroke="#828282" stroke-opacity="1.00" stroke-width="0.3"><path d="
M 413.00 431.00 
C 411.78 427.01 407.81 424.81 405.00 422.00
C 407.13 424.49 411.82 428.20 413.00 431.00 Z"/>
</g>
<g fill="None" fill-opacity="0.0" stroke="#CACACA" stroke-opacity="1.00" stroke-width="0.3"><path d="
M 334.00 457.00 
C 335.64 457.14 337.35 457.00 339.00 457.00
C 343.67 457.00 348.33 457.00 353.00 457.00
C 354.33 457.00 355.67 457.03 357.00 457.00
C 350.19 456.71 340.83 456.94 334.00 457.00 Z"/>
</g>
<g fill="None" fill-opacity="0.0" stroke="#525252" stroke-opacity="1.00" stroke-width="0.3"><path d="
M 353.00 457.00 
C 348.33 457.00 343.67 457.00 339.00 457.00
C 343.43 457.47 348.48 457.62 353.00 457.00 Z"/>
</g>
<g fill="None" fill-opacity="0.0" stroke="#7F7F7F" stroke-opacity="1.00" stroke-width="0.3"><path d="
M 402.00 490.00 
C 397.19 490.18 391.78 490.56 387.00 490.00
C 391.83 491.18 397.16 490.69 402.00 490.00 Z"/>
</g>
<g fill="None" fill-opacity="0.0" stroke="#747474" stroke-opacity="1.00" stroke-width="0.3"><path d="
M 260.00 511.00 
C 260.00 507.00 259.92 503.00 260.00 499.00
C 259.54 502.79 259.63 507.18 260.00 511.00 Z"/>
</g>
<g fill="None" fill-opacity="0.0" stroke="#7E7E7E" stroke-opacity="1.00" stroke-width="0.3"><path d="
M 97.00 536.00 
C 96.89 533.01 97.00 529.99 97.00 527.00
C 96.72 529.87 96.57 533.01 97.00 536.00 Z"/>
</g>
<g fill="#FEFEFE" fill-opacity="1.00" stroke="None">
<path d="
M 0.00 584.00 
L 698.00 584.00
L 698.00 0.00
L 0.00 0.00
L 0.00 584.00
M 472.00 88.00 
C 472.85 91.27 472.92 93.77 472.00 97.00
C 471.22 99.76 469.61 102.16 469.00 105.00
C 484.91 108.29 507.18 107.45 523.00 109.00 C 538.82 110.55 560.77 109.09 562.00 128.00 C 563.23 146.91 565.93 163.00 566.00 182.00
C 569.27 182.70 571.77 180.57 575.00 181.00
C 579.88 180.13 585.26 180.54 590.00 181.00
C 604.07 181.00 616.32 186.91 619.92 201.08 C 623.53 215.24 637.15 218.23 640.00 232.00
C 640.68 235.27 640.80 237.76 640.00 241.00
C 633.55 267.04 592.85 255.37 573.98 255.02 C 555.10 254.68 563.36 272.20 561.00 285.00 C 558.65 297.81 559.29 309.88 555.22 321.22 C 551.15 332.56 548.52 342.70 544.08 353.08 C 539.63 363.45 535.62 371.91 530.23 381.23 C 524.84 390.55 519.63 397.66 512.75 405.75 C 505.87 413.84 499.00 420.18 491.30 427.30 C 483.60 434.43 477.24 440.79 468.77 446.77 C 460.30 452.75 452.64 459.31 443.30 464.31 C 433.97 469.30 425.18 474.23 414.98 477.98 C 404.77 481.72 392.90 485.92 382.00 488.00
C 382.60 490.31 385.13 490.03 387.00 490.00
C 391.78 490.56 397.19 490.18 402.00 490.00
C 417.99 489.39 429.89 482.95 444.23 476.23 C 458.57 469.51 469.36 461.21 487.07 464.93 C 504.79 468.64 492.23 488.03 481.25 496.25 C 470.26 504.47 459.97 511.62 448.30 519.30 C 436.64 526.99 426.12 533.62 413.31 540.31 C 400.49 546.99 386.71 553.26 372.00 556.00 C 357.29 558.74 337.70 563.46 322.00 562.00 C 306.30 560.54 293.07 556.36 280.25 547.75 C 267.44 539.13 260.00 526.22 260.00 511.00
C 259.63 507.18 259.54 502.79 260.00 499.00
C 260.16 490.87 262.53 479.73 265.92 472.92 C 269.32 466.12 251.13 461.17 247.25 466.25 C 243.37 471.33 238.02 478.85 233.23 484.23 C 228.44 489.61 224.15 496.65 219.70 502.70 C 215.24 508.74 209.86 514.91 203.75 519.75 C 197.65 524.59 191.77 528.59 185.25 533.25 C 178.73 537.90 171.78 541.31 163.98 543.98 C 156.17 546.64 148.71 550.07 140.32 552.32 C 131.94 554.57 121.04 556.16 112.00 554.00 C 102.96 551.85 97.35 545.19 97.00 536.00
C 96.57 533.01 96.72 529.87 97.00 527.00
C 97.00 509.05 103.40 489.40 109.32 473.32 C 115.25 457.24 125.27 447.62 138.75 436.75 C 152.24 425.88 165.82 424.39 179.25 411.25 C 192.68 398.11 183.92 376.80 166.32 373.68 C 148.73 370.56 136.94 360.56 123.25 350.75 C 109.55 340.94 99.90 324.51 99.00 308.00
C 97.73 300.15 98.25 290.75 99.00 283.00
C 99.00 261.90 103.55 232.50 109.98 213.98 C 116.40 195.45 124.37 174.79 138.25 162.25 C 152.13 149.70 165.56 126.79 185.00 129.00
C 194.95 130.13 196.67 137.94 195.00 146.00
C 190.28 168.78 177.63 186.91 173.07 210.07 C 168.52 233.23 161.34 262.71 170.00 286.00
C 176.67 278.87 178.13 265.82 181.93 255.93 C 185.73 246.03 189.11 235.33 193.77 225.77 C 198.43 216.21 201.84 206.77 208.00 198.00
C 210.83 193.23 214.28 190.02 218.00 186.00
C 220.65 182.64 223.22 179.25 226.00 176.00
C 229.37 172.06 233.11 168.33 237.00 165.00
C 243.76 159.22 249.64 154.07 256.75 148.75 C 263.86 143.43 271.13 139.46 279.08 135.08 C 287.02 130.69 295.45 126.59 304.08 123.08 C 312.70 119.57 320.97 116.14 330.22 113.22 C 339.47 110.30 349.17 107.19 359.02 105.02 C 368.87 102.86 379.59 101.47 390.01 100.01 C 400.43 98.55 391.34 82.85 391.00 74.00
C 390.55 70.87 390.44 68.11 391.00 65.00
C 392.64 40.90 418.91 37.88 433.08 52.92 C 447.25 67.95 466.33 66.14 472.00 88.00 Z"/>
</g>
<g fill="#000000" fill-opacity="1.00" stroke="None">
<path d="
M 391.00 65.00 
C 390.80 67.94 390.89 71.06 391.00 74.00
C 391.34 82.85 400.43 98.55 390.01 100.01 C 379.59 101.47 368.87 102.86 359.02 105.02 C 349.17 107.19 339.47 110.30 330.22 113.22 C 320.97 116.14 312.70 119.57 304.08 123.08 C 295.45 126.59 287.02 130.69 279.08 135.08 C 271.13 139.46 263.86 143.43 256.75 148.75 C 249.64 154.07 243.76 159.22 237.00 165.00
C 233.41 168.59 229.54 172.46 226.00 176.00
C 223.22 179.25 220.65 182.64 218.00 186.00
C 214.75 190.12 210.96 194.02 208.00 198.00
C 201.84 206.77 198.43 216.21 193.77 225.77 C 189.11 235.33 185.73 246.03 181.93 255.93 C 178.13 265.82 176.67 278.87 170.00 286.00
C 161.34 262.71 168.52 233.23 173.07 210.07 C 177.63 186.91 190.28 168.78 195.00 146.00
C 195.74 137.88 193.33 130.69 185.00 129.00
C 165.56 126.79 152.13 149.70 138.25 162.25 C 124.37 174.79 116.40 195.45 109.98 213.98 C 103.55 232.50 99.00 261.90 99.00 283.00
C 99.00 291.29 98.55 299.72 99.00 308.00
C 99.90 324.51 109.55 340.94 123.25 350.75 C 136.94 360.56 148.73 370.56 166.32 373.68 C 183.92 376.80 192.68 398.11 179.25 411.25 C 165.82 424.39 152.24 425.88 138.75 436.75 C 125.27 447.62 115.25 457.24 109.32 473.32 C 103.40 489.40 97.00 509.05 97.00 527.00
C 97.00 529.99 96.89 533.01 97.00 536.00
C 97.35 545.19 102.96 551.85 112.00 554.00 C 121.04 556.16 131.94 554.57 140.32 552.32 C 148.71 550.07 156.17 546.64 163.98 543.98 C 171.78 541.31 178.73 537.90 185.25 533.25 C 191.77 528.59 197.65 524.59 203.75 519.75 C 209.86 514.91 215.24 508.74 219.70 502.70 C 224.15 496.65 228.44 489.61 233.23 484.23 C 238.02 478.85 243.37 471.33 247.25 466.25 C 251.13 461.17 269.32 466.12 265.92 472.92 C 262.53 479.73 260.16 490.87 260.00 499.00
C 259.92 503.00 260.00 507.00 260.00 511.00
C 260.00 526.22 267.44 539.13 280.25 547.75 C 293.07 556.36 306.30 560.54 322.00 562.00 C 337.70 563.46 357.29 558.74 372.00 556.00 C 386.71 553.26 400.49 546.99 413.31 540.31 C 426.12 533.62 436.64 526.99 448.30 519.30 C 459.97 511.62 470.26 504.47 481.25 496.25 C 492.23 488.03 504.79 468.64 487.07 464.93 C 469.36 461.21 458.57 469.51 444.23 476.23 C 429.89 482.95 417.99 489.39 402.00 490.00
C 397.16 490.69 391.83 491.18 387.00 490.00
C 385.13 490.03 382.60 490.31 382.00 488.00
C 392.90 485.92 404.77 481.72 414.98 477.98 C 425.18 474.23 433.97 469.30 443.30 464.31 C 452.64 459.31 460.30 452.75 468.77 446.77 C 477.24 440.79 483.60 434.43 491.30 427.30 C 499.00 420.18 505.87 413.84 512.75 405.75 C 519.63 397.66 524.84 390.55 530.23 381.23 C 535.62 371.91 539.63 363.45 544.08 353.08 C 548.52 342.70 551.15 332.56 555.22 321.22 C 559.29 309.88 558.65 297.81 561.00 285.00 C 563.36 272.20 555.10 254.68 573.98 255.02 C 592.85 255.37 633.55 267.04 640.00 241.00
C 640.34 238.23 640.25 234.78 640.00 232.00
C 637.15 218.23 623.53 215.24 619.92 201.08 C 616.32 186.91 604.07 181.00 590.00 181.00
C 585.04 181.00 579.95 180.66 575.00 181.00
C 571.77 180.57 569.27 182.70 566.00 182.00
C 565.93 163.00 563.23 146.91 562.00 128.00 C 560.77 109.09 538.82 110.55 523.00 109.00 C 507.18 107.45 484.91 108.29 469.00 105.00
C 469.61 102.16 471.22 99.76 472.00 97.00
C 472.40 94.38 472.35 90.63 472.00 88.00
C 466.33 66.14 447.25 67.95 433.08 52.92 C 418.91 37.88 392.64 40.90 391.00 65.00
M 426.00 135.00 
C 434.01 135.00 446.29 135.42 451.75 141.25 C 457.22 147.07 460.48 156.93 461.77 163.23 C 463.06 169.53 470.88 185.48 462.99 185.99 C 455.10 186.50 444.13 181.20 436.00 181.00 C 427.86 180.80 416.71 180.24 412.23 172.77 C 407.75 165.30 405.29 160.58 400.25 152.75 C 395.21 144.93 391.87 135.50 405.00 135.00
C 411.66 134.05 419.45 134.37 426.00 135.00
M 400.00 219.00 
C 397.21 224.22 390.92 221.38 387.00 221.00
C 372.86 221.00 352.75 220.15 343.25 208.75 C 333.75 197.35 326.93 189.31 318.00 178.00
C 315.36 175.14 310.60 172.70 309.00 169.00
C 305.30 160.43 320.15 156.31 326.68 153.68 C 333.21 151.05 345.10 144.95 352.22 143.22 C 359.35 141.50 373.69 134.42 379.25 140.75 C 384.81 147.08 388.38 155.91 393.25 162.75 C 398.13 169.58 405.88 177.68 404.00 187.00 C 402.12 196.32 404.56 210.46 400.00 219.00
M 486.00 146.00 
C 494.30 146.66 502.80 150.38 509.25 155.75 C 515.69 161.13 519.80 169.68 521.77 177.23 C 523.74 184.78 526.23 204.28 515.98 201.02 C 505.72 197.77 499.28 195.44 488.98 194.02 C 478.67 192.61 481.31 177.11 479.00 170.00 C 476.69 162.88 467.97 149.68 477.00 146.00
C 480.26 144.67 482.90 145.40 486.00 146.00
M 340.00 227.00 
C 342.20 237.60 342.44 254.49 340.00 265.00
C 338.23 272.60 332.63 273.74 325.00 274.00
C 323.34 274.06 321.66 274.00 320.00 274.00
C 313.32 274.71 302.50 276.77 296.00 274.00
C 295.50 274.00 294.46 274.13 294.00 274.00
C 284.57 271.41 274.66 260.10 267.75 253.25 C 260.84 246.40 247.03 239.22 243.00 230.00
C 240.49 224.25 245.40 220.14 249.00 216.00
C 253.85 207.91 263.49 197.79 270.75 191.75 C 278.01 185.71 288.20 170.47 296.75 178.25 C 305.31 186.02 311.85 193.53 319.25 201.75 C 326.65 209.97 337.80 216.36 340.00 227.00
M 476.00 259.00 
C 474.47 263.53 471.32 261.60 468.00 261.00
C 454.03 258.50 446.22 250.34 435.00 242.00
C 430.82 238.89 422.11 232.02 421.00 227.00
C 419.39 219.71 420.05 201.15 427.25 196.25 C 434.45 191.35 449.29 199.83 458.07 200.93 C 466.86 202.02 474.30 213.24 474.32 222.68 C 474.34 232.12 479.38 248.99 476.00 259.00
M 490.00 251.00 
C 490.23 245.02 490.00 238.98 490.00 233.00
C 490.00 227.62 485.56 211.17 493.01 211.01 C 500.46 210.85 506.93 216.65 515.07 216.93 C 523.22 217.20 526.08 226.33 525.93 234.07 C 525.77 241.82 526.63 253.24 526.00 261.00 C 525.37 268.76 526.49 280.73 516.78 278.22 C 507.07 275.71 505.72 273.63 496.32 270.68 C 486.92 267.72 489.70 258.95 490.00 251.00
M 372.00 234.00 
C 384.61 236.79 394.14 239.39 405.25 246.75 C 416.35 254.11 419.31 258.59 432.08 265.92 C 444.85 273.25 441.92 282.50 436.22 295.22 C 430.52 307.95 426.46 315.54 411.78 316.78 C 397.10 318.02 388.86 315.61 380.75 304.25 C 372.64 292.89 362.08 292.89 358.00 280.00
C 356.87 276.43 357.59 273.36 358.00 270.00
C 358.18 260.81 357.79 243.68 363.00 236.00
C 365.72 232.00 368.34 233.19 372.00 234.00
M 240.00 248.00 
C 243.84 250.21 246.70 253.42 250.00 256.00
C 258.18 261.07 261.65 265.24 269.75 271.25 C 277.86 277.25 284.30 281.01 281.07 292.07 C 277.85 303.14 276.58 310.41 277.00 323.00 C 277.42 335.59 271.75 341.46 259.00 341.00 C 246.25 340.54 239.39 344.63 227.00 344.00 C 214.61 343.37 216.39 330.69 214.02 320.98 C 211.66 311.26 213.28 298.46 214.98 288.98 C 216.68 279.49 218.98 269.78 223.31 261.31 C 227.63 252.83 229.07 241.71 240.00 248.00
M 470.00 277.00 
C 479.12 277.79 490.87 285.36 500.02 286.98 C 509.18 288.60 523.81 294.45 519.67 304.67 C 515.53 314.90 514.22 324.93 509.08 334.08 C 503.94 343.22 501.03 352.16 493.25 359.25 C 485.46 366.34 478.85 351.32 471.25 346.75 C 463.65 342.18 459.86 332.16 451.25 326.75 C 442.63 321.34 445.56 306.87 452.31 300.31 C 459.05 293.74 458.01 275.96 470.00 277.00
M 377.00 374.00 
C 380.31 377.19 367.33 379.30 363.00 378.00 C 358.67 376.70 348.22 379.16 343.00 378.00 C 337.78 376.84 327.34 380.21 323.00 377.00
C 322.50 377.00 322.00 377.00 322.00 377.00
C 312.64 373.62 311.44 365.83 303.70 359.30 C 295.96 352.77 290.92 345.84 292.33 334.33 C 293.74 322.82 296.07 315.83 296.93 302.93 C 297.78 290.02 309.18 289.03 320.67 290.33 C 332.16 291.63 339.81 291.94 346.75 300.25 C 353.70 308.55 359.72 310.52 366.25 317.75 C 372.77 324.98 381.69 329.30 380.00 340.00 C 378.31 350.70 380.63 363.77 377.00 374.00
M 482.00 377.00 
C 483.46 382.76 479.13 385.87 475.00 390.00
C 467.57 398.69 459.99 405.15 451.25 412.25 C 442.51 419.34 430.86 426.66 422.75 416.25 C 414.64 405.84 408.00 401.74 400.00 392.00
C 395.61 386.66 397.41 381.10 398.00 375.00
C 398.00 364.58 398.48 353.46 399.00 343.00 C 399.52 332.54 417.48 338.89 425.00 336.00 C 432.52 333.11 443.13 337.54 448.75 343.25 C 454.37 348.96 461.43 352.22 466.75 358.25 C 472.08 364.28 480.06 369.35 482.00 377.00
M 301.00 382.00 
C 303.63 384.24 308.61 387.39 309.00 391.00
C 309.40 395.46 308.53 400.29 308.00 404.00
C 307.57 415.39 305.97 427.06 303.02 438.02 C 300.08 448.99 285.01 438.38 278.30 433.70 C 271.60 429.02 263.15 422.19 256.75 415.25 C 250.36 408.31 244.80 402.07 239.70 393.30 C 234.59 384.54 228.67 379.42 226.02 367.98 C 223.38 356.54 241.24 356.62 251.07 355.07 C 260.91 353.52 275.18 352.37 281.75 361.25 C 288.32 370.13 292.93 375.10 301.00 382.00
M 374.00 393.00 
C 385.69 395.90 397.30 412.99 405.00 422.00
C 407.81 424.81 411.78 427.01 413.00 431.00
C 415.77 440.06 398.20 444.99 390.77 448.77 C 383.35 452.56 366.22 456.82 357.00 457.00
C 355.67 457.03 354.33 457.00 353.00 457.00
C 348.48 457.62 343.43 457.47 339.00 457.00
C 337.35 457.00 335.64 457.14 334.00 457.00
C 325.16 456.24 314.12 453.48 316.00 443.00 C 317.88 432.52 318.79 425.23 320.98 415.98 C 323.16 406.72 323.24 397.81 333.67 396.67 C 344.10 395.54 352.57 393.57 363.00 393.00
C 366.76 392.39 370.23 392.07 374.00 393.00 Z"/>
</g>
<g fill="#8B8B8B" fill-opacity="1.00" stroke="None">
<path d="
M 391.00 74.00 
C 390.89 71.06 390.80 67.94 391.00 65.00
C 390.44 68.11 390.55 70.87 391.00 74.00 Z"/>
</g>
<g fill="#717171" fill-opacity="1.00" stroke="None">
<path d="
M 472.00 97.00 
C 472.92 93.77 472.85 91.27 472.00 88.00
C 472.35 90.63 472.40 94.38 472.00 97.00 Z"/>
</g>
<g fill="#676767" fill-opacity="1.00" stroke="None">
<path d="
M 195.00 146.00 
C 196.67 137.94 194.95 130.13 185.00 129.00
C 193.33 130.69 195.74 137.88 195.00 146.00 Z"/>
</g>
<g fill="#747474" fill-opacity="1.00" stroke="None">
<path d="
M 405.00 135.00 
C 411.98 134.73 419.02 135.00 426.00 135.00
C 419.45 134.37 411.66 134.05 405.00 135.00 Z"/>
</g>
<g fill="#F8F8F8" fill-opacity="1.00" stroke="None">
<path d="
M 426.00 135.00 
C 419.02 135.00 411.98 134.73 405.00 135.00
C 391.87 135.50 395.21 144.93 400.25 152.75 C 405.29 160.58 407.75 165.30 412.23 172.77 C 416.71 180.24 427.86 180.80 436.00 181.00 C 444.13 181.20 455.10 186.50 462.99 185.99 C 470.88 185.48 463.06 169.53 461.77 163.23 C 460.48 156.93 457.22 147.07 451.75 141.25 C 446.29 135.42 434.01 135.00 426.00 135.00 Z"/>
</g>
<g fill="#FAFAFA" fill-opacity="1.00" stroke="None">
<path d="
M 309.00 169.00 
C 310.55 171.97 315.80 175.22 318.00 178.00
C 326.93 189.31 333.75 197.35 343.25 208.75 C 352.75 220.15 372.86 221.00 387.00 221.00
C 390.67 221.00 397.54 222.38 400.00 219.00
C 404.56 210.46 402.12 196.32 404.00 187.00 C 405.88 177.68 398.13 169.58 393.25 162.75 C 388.38 155.91 384.81 147.08 379.25 140.75 C 373.69 134.42 359.35 141.50 352.22 143.22 C 345.10 144.95 333.21 151.05 326.68 153.68 C 320.15 156.31 305.30 160.43 309.00 169.00 Z"/>
</g>
<g fill="#777777" fill-opacity="1.00" stroke="None">
<path d="
M 477.00 146.00 
C 479.46 145.38 483.45 145.80 486.00 146.00
C 482.90 145.40 480.26 144.67 477.00 146.00 Z"/>
</g>
<g fill="#F7F7F7" fill-opacity="1.00" stroke="None">
<path d="
M 486.00 146.00 
C 483.45 145.80 479.46 145.38 477.00 146.00
C 467.97 149.68 476.69 162.88 479.00 170.00 C 481.31 177.11 478.67 192.61 488.98 194.02 C 499.28 195.44 505.72 197.77 515.98 201.02 C 526.23 204.28 523.74 184.78 521.77 177.23 C 519.80 169.68 515.69 161.13 509.25 155.75 C 502.80 150.38 494.30 146.66 486.00 146.00 Z"/>
</g>
<g fill="#888888" fill-opacity="1.00" stroke="None">
<path d="
M 226.00 176.00 
C 229.54 172.46 233.41 168.59 237.00 165.00
C 233.11 168.33 229.37 172.06 226.00 176.00 Z"/>
</g>
<g fill="#767676" fill-opacity="1.00" stroke="None">
<path d="
M 318.00 178.00 
C 315.80 175.22 310.55 171.97 309.00 169.00
C 310.60 172.70 315.36 175.14 318.00 178.00 Z"/>
</g>
<g fill="#FBFBFB" fill-opacity="1.00" stroke="None">
<path d="
M 249.00 216.00 
C 246.73 219.78 241.78 225.09 243.00 230.00
C 247.03 239.22 260.84 246.40 267.75 253.25 C 274.66 260.10 284.57 271.41 294.00 274.00
C 294.94 270.74 305.57 274.16 309.00 273.00 C 312.43 271.84 321.92 273.87 325.00 274.00
C 332.63 273.74 338.23 272.60 340.00 265.00
C 341.32 253.20 341.08 238.83 340.00 227.00
C 337.80 216.36 326.65 209.97 319.25 201.75 C 311.85 193.53 305.31 186.02 296.75 178.25 C 288.20 170.47 278.01 185.71 270.75 191.75 C 263.49 197.79 253.85 207.91 249.00 216.00 Z"/>
</g>
<g fill="#6A6A6A" fill-opacity="1.00" stroke="None">
<path d="
M 575.00 181.00 
C 579.95 180.66 585.04 181.00 590.00 181.00
C 585.26 180.54 579.88 180.13 575.00 181.00 Z"/>
</g>
<g fill="#888888" fill-opacity="1.00" stroke="None">
<path d="
M 208.00 198.00 
C 210.96 194.02 214.75 190.12 218.00 186.00
C 214.28 190.02 210.83 193.23 208.00 198.00 Z"/>
</g>
<g fill="#F9F9F9" fill-opacity="1.00" stroke="None">
<path d="
M 421.00 227.00 
C 422.27 231.01 431.63 239.07 435.00 242.00
C 446.22 250.34 454.03 258.50 468.00 261.00
C 470.82 261.14 474.64 261.71 476.00 259.00
C 479.38 248.99 474.34 232.12 474.32 222.68 C 474.30 213.24 466.86 202.02 458.07 200.93 C 449.29 199.83 434.45 191.35 427.25 196.25 C 420.05 201.15 419.39 219.71 421.00 227.00 Z"/>
</g>
<g fill="#F7F7F7" fill-opacity="1.00" stroke="None">
<path d="
M 490.00 233.00 
C 490.55 238.71 490.81 245.32 490.00 251.00
C 489.70 258.95 486.92 267.72 496.32 270.68 C 505.72 273.63 507.07 275.71 516.78 278.22 C 526.49 280.73 525.37 268.76 526.00 261.00 C 526.63 253.24 525.77 241.82 525.93 234.07 C 526.08 226.33 523.22 217.20 515.07 216.93 C 506.93 216.65 500.46 210.85 493.01 211.01 C 485.56 211.17 490.00 227.62 490.00 233.00 Z"/>
</g>
<g fill="#737373" fill-opacity="1.00" stroke="None">
<path d="
M 243.00 230.00 
C 241.78 225.09 246.73 219.78 249.00 216.00
C 245.40 220.14 240.49 224.25 243.00 230.00 Z"/>
</g>
<g fill="#717171" fill-opacity="1.00" stroke="None">
<path d="
M 387.00 221.00 
C 390.92 221.38 397.21 224.22 400.00 219.00
C 397.54 222.38 390.67 221.00 387.00 221.00 Z"/>
</g>
<g fill="#7F7F7F" fill-opacity="1.00" stroke="None">
<path d="
M 340.00 265.00 
C 342.44 254.49 342.20 237.60 340.00 227.00
C 341.08 238.83 341.32 253.20 340.00 265.00 Z"/>
</g>
<g fill="#7A7A7A" fill-opacity="1.00" stroke="None">
<path d="
M 435.00 242.00 
C 431.63 239.07 422.27 231.01 421.00 227.00
C 422.11 232.02 430.82 238.89 435.00 242.00 Z"/>
</g>
<g fill="#676767" fill-opacity="1.00" stroke="None">
<path d="
M 640.00 241.00 
C 640.80 237.76 640.68 235.27 640.00 232.00
C 640.25 234.78 640.34 238.23 640.00 241.00 Z"/>
</g>
<g fill="#747474" fill-opacity="1.00" stroke="None">
<path d="
M 363.00 236.00 
C 365.23 233.56 368.89 233.74 372.00 234.00
C 368.34 233.19 365.72 232.00 363.00 236.00 Z"/>
</g>
<g fill="#626262" fill-opacity="1.00" stroke="None">
<path d="
M 490.00 251.00 
C 490.81 245.32 490.55 238.71 490.00 233.00
C 490.00 238.98 490.23 245.02 490.00 251.00 Z"/>
</g>
<g fill="#FAFAFA" fill-opacity="1.00" stroke="None">
<path d="
M 363.00 236.00 
C 357.79 243.68 358.18 260.81 358.00 270.00
C 357.94 273.13 357.45 276.93 358.00 280.00
C 362.08 292.89 372.64 292.89 380.75 304.25 C 388.86 315.61 397.10 318.02 411.78 316.78 C 426.46 315.54 430.52 307.95 436.22 295.22 C 441.92 282.50 444.85 273.25 432.08 265.92 C 419.31 258.59 416.35 254.11 405.25 246.75 C 394.14 239.39 384.61 236.79 372.00 234.00
C 368.89 233.74 365.23 233.56 363.00 236.00 Z"/>
</g>
<g fill="#FAFAFA" fill-opacity="1.00" stroke="None">
<path d="
M 250.00 256.00 
C 246.28 253.70 243.34 250.43 240.00 248.00
C 229.07 241.71 227.63 252.83 223.31 261.31 C 218.98 269.78 216.68 279.49 214.98 288.98 C 213.28 298.46 211.66 311.26 214.02 320.98 C 216.39 330.69 214.61 343.37 227.00 344.00 C 239.39 344.63 246.25 340.54 259.00 341.00 C 271.75 341.46 277.42 335.59 277.00 323.00 C 276.58 310.41 277.85 303.14 281.07 292.07 C 284.30 281.01 277.86 277.25 269.75 271.25 C 261.65 265.24 258.18 261.07 250.00 256.00 Z"/>
</g>
<g fill="#7D7D7D" fill-opacity="1.00" stroke="None">
<path d="
M 250.00 256.00 
C 246.70 253.42 243.84 250.21 240.00 248.00
C 243.34 250.43 246.28 253.70 250.00 256.00 Z"/>
</g>
<g fill="#7E7E7E" fill-opacity="1.00" stroke="None">
<path d="
M 468.00 261.00 
C 471.32 261.60 474.47 263.53 476.00 259.00
C 474.64 261.71 470.82 261.14 468.00 261.00 Z"/>
</g>
<g fill="#777777" fill-opacity="1.00" stroke="None">
<path d="
M 358.00 280.00 
C 357.45 276.93 357.94 273.13 358.00 270.00
C 357.59 273.36 356.87 276.43 358.00 280.00 Z"/>
</g>
<g fill="#C6C6C6" fill-opacity="1.00" stroke="None">
<path d="
M 294.00 274.00 
C 294.46 274.13 295.50 274.00 296.00 274.00
C 304.00 274.00 312.00 274.00 320.00 274.00
C 321.66 274.00 323.34 274.06 325.00 274.00
C 321.92 273.87 312.43 271.84 309.00 273.00 C 305.57 274.16 294.94 270.74 294.00 274.00 Z"/>
</g>
<g fill="#585858" fill-opacity="1.00" stroke="None">
<path d="
M 320.00 274.00 
C 312.00 274.00 304.00 274.00 296.00 274.00
C 302.50 276.77 313.32 274.71 320.00 274.00 Z"/>
</g>
<g fill="#F9F9F9" fill-opacity="1.00" stroke="None">
<path d="
M 470.00 277.00 
C 458.01 275.96 459.05 293.74 452.31 300.31 C 445.56 306.87 442.63 321.34 451.25 326.75 C 459.86 332.16 463.65 342.18 471.25 346.75 C 478.85 351.32 485.46 366.34 493.25 359.25 C 501.03 352.16 503.94 343.22 509.08 334.08 C 514.22 324.93 515.53 314.90 519.67 304.67 C 523.81 294.45 509.18 288.60 500.02 286.98 C 490.87 285.36 479.12 277.79 470.00 277.00 Z"/>
</g>
<g fill="#797979" fill-opacity="1.00" stroke="None">
<path d="
M 99.00 308.00 
C 98.55 299.72 99.00 291.29 99.00 283.00
C 98.25 290.75 97.73 300.15 99.00 308.00 Z"/>
</g>
<g fill="#FBFBFB" fill-opacity="1.00" stroke="None">
<path d="
M 322.00 377.00 
C 327.19 371.59 341.99 378.83 349.00 376.00 C 356.01 373.17 370.75 380.03 377.00 375.00
C 377.14 374.54 377.00 374.00 377.00 374.00
C 380.63 363.77 378.31 350.70 380.00 340.00 C 381.69 329.30 372.77 324.98 366.25 317.75 C 359.72 310.52 353.70 308.55 346.75 300.25 C 339.81 291.94 332.16 291.63 320.67 290.33 C 309.18 289.03 297.78 290.02 296.93 302.93 C 296.07 315.83 293.74 322.82 292.33 334.33 C 290.92 345.84 295.96 352.77 303.70 359.30 C 311.44 365.83 312.64 373.62 322.00 377.00 Z"/>
</g>
<g fill="#FAFAFA" fill-opacity="1.00" stroke="None">
<path d="
M 398.00 375.00 
C 398.00 380.77 396.97 387.05 400.00 392.00
C 408.00 401.74 414.64 405.84 422.75 416.25 C 430.86 426.66 442.51 419.34 451.25 412.25 C 459.99 405.15 467.57 398.69 475.00 390.00
C 478.15 386.31 482.41 382.18 482.00 377.00
C 480.06 369.35 472.08 364.28 466.75 358.25 C 461.43 352.22 454.37 348.96 448.75 343.25 C 443.13 337.54 432.52 333.11 425.00 336.00 C 417.48 338.89 399.52 332.54 399.00 343.00 C 398.48 353.46 398.00 364.58 398.00 375.00 Z"/>
</g>
<g fill="#FAFAFA" fill-opacity="1.00" stroke="None">
<path d="
M 308.00 404.00 
C 308.16 399.70 307.61 395.29 308.00 391.00
C 306.95 387.81 303.43 384.43 301.00 382.00
C 292.93 375.10 288.32 370.13 281.75 361.25 C 275.18 352.37 260.91 353.52 251.07 355.07 C 241.24 356.62 223.38 356.54 226.02 367.98 C 228.67 379.42 234.59 384.54 239.70 393.30 C 244.80 402.07 250.36 408.31 256.75 415.25 C 263.15 422.19 271.60 429.02 278.30 433.70 C 285.01 438.38 300.08 448.99 303.02 438.02 C 305.97 427.06 307.57 415.39 308.00 404.00 Z"/>
</g>
<g fill="#5E5E5E" fill-opacity="1.00" stroke="None">
<path d="
M 377.00 375.00 
C 375.64 379.55 365.67 376.33 361.00 377.00 C 356.33 377.67 347.47 376.75 342.00 377.00 C 336.53 377.25 328.68 377.00 323.00 377.00
C 327.34 380.21 337.78 376.84 343.00 378.00 C 348.22 379.16 358.67 376.70 363.00 378.00 C 367.33 379.30 380.31 377.19 377.00 374.00
C 377.00 374.00 377.14 374.54 377.00 375.00 Z"/>
</g>
<g fill="#D2D2D2" fill-opacity="1.00" stroke="None">
<path d="
M 322.00 377.00 
C 322.00 377.00 322.50 377.00 323.00 377.00
C 328.68 377.00 336.53 377.25 342.00 377.00 C 347.47 376.75 356.33 377.67 361.00 377.00 C 365.67 376.33 375.64 379.55 377.00 375.00
C 370.75 380.03 356.01 373.17 349.00 376.00 C 341.99 378.83 327.19 371.59 322.00 377.00 Z"/>
</g>
<g fill="#767676" fill-opacity="1.00" stroke="None">
<path d="
M 400.00 392.00 
C 396.97 387.05 398.00 380.77 398.00 375.00
C 397.41 381.10 395.61 386.66 400.00 392.00 Z"/>
</g>
<g fill="#6B6B6B" fill-opacity="1.00" stroke="None">
<path d="
M 475.00 390.00 
C 479.13 385.87 483.46 382.76 482.00 377.00
C 482.41 382.18 478.15 386.31 475.00 390.00 Z"/>
</g>
<g fill="#727272" fill-opacity="1.00" stroke="None">
<path d="
M 308.00 391.00 
C 308.05 391.15 309.00 391.00 309.00 391.00
C 308.61 387.39 303.63 384.24 301.00 382.00
C 303.43 384.43 306.95 387.81 308.00 391.00 Z"/>
</g>
<g fill="#BEBEBE" fill-opacity="1.00" stroke="None">
<path d="
M 308.00 404.00 
C 308.53 400.29 309.40 395.46 309.00 391.00
C 309.00 391.00 308.05 391.15 308.00 391.00
C 307.61 395.29 308.16 399.70 308.00 404.00 Z"/>
</g>
<g fill="#787878" fill-opacity="1.00" stroke="None">
<path d="
M 363.00 393.00 
C 366.48 392.81 370.54 392.57 374.00 393.00
C 370.23 392.07 366.76 392.39 363.00 393.00 Z"/>
</g>
<g fill="#FAFAFA" fill-opacity="1.00" stroke="None">
<path d="
M 334.00 457.00 
C 340.83 456.94 350.19 456.71 357.00 457.00
C 366.22 456.82 383.35 452.56 390.77 448.77 C 398.20 444.99 415.77 440.06 413.00 431.00
C 411.82 428.20 407.13 424.49 405.00 422.00
C 397.30 412.99 385.69 395.90 374.00 393.00
C 370.54 392.57 366.48 392.81 363.00 393.00
C 352.57 393.57 344.10 395.54 333.67 396.67 C 323.24 397.81 323.16 406.72 320.98 415.98 C 318.79 425.23 317.88 432.52 316.00 443.00 C 314.12 453.48 325.16 456.24 334.00 457.00 Z"/>
</g>
<g fill="#828282" fill-opacity="1.00" stroke="None">
<path d="
M 413.00 431.00 
C 411.78 427.01 407.81 424.81 405.00 422.00
C 407.13 424.49 411.82 428.20 413.00 431.00 Z"/>
</g>
<g fill="#CACACA" fill-opacity="1.00" stroke="None">
<path d="
M 334.00 457.00 
C 335.64 457.14 337.35 457.00 339.00 457.00
C 343.67 457.00 348.33 457.00 353.00 457.00
C 354.33 457.00 355.67 457.03 357.00 457.00
C 350.19 456.71 340.83 456.94 334.00 457.00 Z"/>
</g>
<g fill="#525252" fill-opacity="1.00" stroke="None">
<path d="
M 353.00 457.00 
C 348.33 457.00 343.67 457.00 339.00 457.00
C 343.43 457.47 348.48 457.62 353.00 457.00 Z"/>
</g>
<g fill="#7F7F7F" fill-opacity="1.00" stroke="None">
<path d="
M 402.00 490.00 
C 397.19 490.18 391.78 490.56 387.00 490.00
C 391.83 491.18 397.16 490.69 402.00 490.00 Z"/>
</g>
<g fill="#747474" fill-opacity="1.00" stroke="None">
<path d="
M 260.00 511.00 
C 260.00 507.00 259.92 503.00 260.00 499.00
C 259.54 502.79 259.63 507.18 260.00 511.00 Z"/>
</g>
<g fill="#7E7E7E" fill-opacity="1.00" stroke="None">
<path d="
M 97.00 536.00 
C 96.89 533.01 97.00 529.99 97.00 527.00
C 96.72 529.87 96.57 533.01 97.00 536.00 Z"/>
</g>
</svg>